<?xml version="1.0" standalone="no"?>
<!DOCTYPE svg PUBLIC "-//W3C//DTD SVG 20010904//EN"
 "http://www.w3.org/TR/2001/REC-SVG-20010904/DTD/svg10.dtd">
<svg version="1.0" xmlns="http://www.w3.org/2000/svg"
 width="2289.000000pt" height="2289.000000pt" viewBox="0 0 2289.000000 2289.000000"
 preserveAspectRatio="xMidYMid meet">
<metadata>
Created by potrace 1.11, written by Peter Selinger 2001-2013
</metadata>
<g transform="translate(0.000000,2289.000000) scale(0.100000,-0.100000)"
fill="#000000" stroke="none">
<path d="M207 13763 c-15 -3 -32 -13 -37 -24 -6 -10 -20 -19 -30 -19 -11 0
-47 -21 -80 -47 -59 -45 -60 -47 -60 -95 0 -34 7 -60 25 -88 14 -22 25 -44 25
-48 0 -5 14 -23 30 -41 22 -22 39 -31 63 -31 57 0 88 -29 143 -136 29 -54 64
-130 79 -169 96 -249 282 -611 415 -805 9 -14 61 -90 115 -170 104 -154 149
-213 230 -298 45 -48 101 -128 177 -253 62 -103 203 -297 239 -329 21 -20 39
-41 39 -47 0 -7 18 -29 40 -49 22 -21 40 -42 40 -47 0 -12 118 -127 130 -127
5 0 14 -9 20 -20 6 -11 17 -20 25 -20 16 0 155 -134 155 -150 0 -50 300 -330
354 -330 9 0 25 -9 36 -20 11 -11 24 -20 28 -20 4 0 26 -17 48 -39 21 -21 63
-55 92 -75 124 -86 148 -102 172 -114 14 -7 43 -23 65 -37 22 -13 47 -27 55
-31 8 -4 25 -17 37 -29 12 -11 34 -27 50 -35 29 -16 91 -54 108 -68 6 -4 25
-14 43 -21 17 -7 32 -17 32 -22 0 -5 7 -9 16 -9 17 0 75 -25 146 -61 20 -10
44 -19 53 -19 9 0 33 -9 55 -20 22 -11 52 -20 67 -20 16 0 38 -7 50 -15 13 -9
56 -18 109 -22 59 -4 92 -11 104 -22 48 -44 105 -87 126 -94 13 -5 24 -13 24
-18 0 -5 6 -9 13 -9 7 0 29 -9 50 -20 20 -11 42 -20 47 -20 6 0 27 -8 48 -17
42 -19 47 -20 84 -22 15 0 33 -7 40 -13 7 -7 24 -14 38 -15 14 -1 61 -5 105
-9 44 -5 133 -8 198 -8 64 0 117 -3 117 -7 0 -3 15 -12 33 -19 17 -6 45 -18
60 -27 15 -8 51 -17 80 -19 28 -3 57 -10 63 -15 11 -9 85 -17 239 -24 85 -4
104 -7 120 -17 6 -3 28 -9 50 -12 22 -4 50 -13 62 -21 12 -8 33 -15 45 -15 13
0 41 -9 63 -19 22 -10 74 -21 115 -25 41 -3 92 -12 112 -19 45 -16 290 -16
310 0 22 17 53 21 66 7 7 -8 25 -16 40 -20 15 -3 34 -8 42 -10 8 -3 17 -5 19
-4 2 1 7 -2 10 -7 19 -27 327 -55 379 -34 54 21 136 22 173 2 30 -16 53 -18
169 -16 74 2 151 4 170 6 19 1 55 -1 80 -4 199 -28 233 -30 283 -20 29 6 84 9
122 6 56 -4 7539 -10 7650 -6 17 1 89 2 160 2 72 1 159 1 195 2 36 0 87 -3
114 -7 51 -7 208 8 311 30 51 11 62 11 71 -2 8 -11 36 -14 130 -13 142 2 151
3 191 20 21 9 54 11 100 7 197 -18 296 -18 357 -1 89 24 190 58 196 65 14 18
41 17 64 -1 24 -19 39 -20 158 -18 120 2 180 8 248 24 14 3 43 10 65 15 22 4
59 16 83 24 24 9 51 18 60 20 9 1 28 8 42 14 53 24 159 45 250 48 137 4 232
13 244 23 6 5 32 12 59 15 54 8 134 41 139 57 3 8 49 13 133 15 199 4 308 13
316 25 3 6 28 14 55 17 27 3 58 11 69 18 11 7 40 18 65 24 25 7 47 15 50 19 3
3 16 12 30 19 82 42 100 54 128 81 17 17 33 31 37 31 4 0 13 6 20 13 11 11 84
25 153 30 6 0 12 4 12 8 0 9 46 20 98 23 20 2 51 10 69 19 18 9 41 17 51 17
11 0 25 6 31 14 7 8 27 18 44 22 18 3 48 15 67 24 40 21 74 35 113 50 15 5 27
14 27 19 0 5 16 15 35 21 19 6 35 15 35 20 0 5 10 12 22 15 11 4 31 18 43 31
12 13 40 31 61 40 21 9 62 32 90 50 28 19 54 34 58 34 4 0 12 4 19 10 52 42
170 130 205 153 23 15 42 31 42 36 0 6 10 13 23 17 12 4 33 15 46 25 13 11 32
19 42 19 11 0 19 5 19 10 0 6 8 14 18 17 38 14 227 202 246 244 18 41 42 70
79 94 15 10 26 20 23 22 -8 8 92 93 109 93 9 0 165 153 165 162 0 4 16 24 35
45 19 21 35 41 35 44 0 4 47 54 103 111 57 57 117 124 133 148 16 25 37 54 47
64 9 11 17 26 17 33 0 7 4 13 10 13 5 0 16 16 24 35 9 20 37 58 63 86 26 28
50 55 52 60 5 16 51 59 61 59 6 0 10 5 10 11 0 6 15 29 33 52 19 23 44 60 58
82 13 22 37 54 54 72 51 53 81 95 123 175 44 84 48 90 105 148 20 21 37 48 37
59 0 12 9 26 20 33 12 8 20 24 20 39 0 15 7 32 15 39 8 7 15 18 15 24 0 6 11
34 25 61 13 28 25 57 25 66 0 8 4 19 9 25 9 8 29 43 84 149 12 21 29 47 39 57
10 10 18 25 18 34 0 8 7 22 15 30 8 9 15 26 15 39 0 14 9 29 20 35 14 7 20 21
20 43 0 18 9 46 20 62 13 20 20 47 20 82 0 29 6 57 13 65 8 7 17 25 20 39 4
14 16 46 27 72 16 36 26 47 44 47 46 0 62 37 64 143 l2 96 -62 61 c-34 33 -71
63 -82 66 -12 2 -2212 3 -4891 1 -3497 -2 -4881 -6 -4910 -14 -22 -6 -71 -19
-110 -28 -195 -49 -303 -87 -472 -167 -46 -21 -85 -38 -88 -38 -4 0 -25 -13
-48 -28 -23 -15 -53 -33 -67 -40 -39 -18 -64 -36 -73 -50 -13 -20 -64 -42 -97
-42 -18 0 -64 13 -103 29 -40 15 -88 32 -107 36 -19 5 -42 11 -50 13 -8 2
-137 6 -287 8 -272 4 -364 -3 -447 -36 -17 -6 -60 -13 -97 -17 l-66 -5 -72 51
c-39 28 -73 51 -76 51 -3 0 -29 16 -58 35 -28 19 -57 35 -64 35 -18 0 -101 29
-158 55 -83 38 -143 52 -305 71 -30 3 -58 8 -61 10 -4 2 -35 6 -70 9 -143 13
-170 16 -356 45 -105 16 -410 17 -4745 17 -2548 0 -4645 -2 -4661 -4z"/>
<path d="M22710 9809 c0 -5 5 -7 10 -4 6 3 10 8 10 11 0 2 -4 4 -10 4 -5 0
-10 -5 -10 -11z"/>
</g>
</svg>
