<svg version="1.1" id="Layer_1" xmlns="http://www.w3.org/2000/svg" xmlns:xlink="http://www.w3.org/1999/xlink" x="0px" y="0px" viewBox="0 0 5669.3 5669.3" style="enable-background:new 0 0 5669.3 5669.3;" xml:space="preserve">
<g>
	<path d="M5076.1,4688.4c-13-24.8-18.3-36.7-25.2-47.6c-454.9-719.1-909.4-1438.4-1366.8-2155.9c-17.2-26.9-63-50.3-95.6-50.5
		c-479.8-3.2-959.7-3.2-1439.5,0.1c-32.3,0.2-77.4,25-94.7,52.2C1598.4,3201.9,1145.4,3919,692.3,4636
		c-9.1,14.3-13.8,31.4-22.8,52.4C2139.4,4688.4,3600.9,4688.4,5076.1,4688.4z M5202.8,4573c153.3-74.1,251.4-189.8,284.9-347.6
		c67-314.7,81.2-634.9,60.8-955.2c-3-47-53.1-110.9-97.9-132.1c-295.9-139.8-598.2-137.4-895.7-4.3
		c-114.9,51.4-144.1,186-76.5,293.8c118.6,189,238.1,377.5,357.5,566.1C4957.9,4186.5,5080.1,4379.2,5202.8,4573z M534.4,4572.1
		c15.2-22.5,30.7-44.2,44.9-66.6c225.8-356.7,451.7-713.3,677.2-1070.2c75.9-120.2,44.9-253.7-84.9-309
		c-288.1-122.9-580-121.3-869.4,0c-78.9,33.1-123.1,92.4-117.6,182.9c17.2,281.5,25.7,563.8,52.8,844.4
		C255.4,4340.8,356,4485,534.4,4572.1z M1170.6,2505.2c-0.8-236.3-199.1-433.4-434.1-431.5c-238.5,1.9-429,195.5-428.4,435.3
		c0.6,239.4,195.3,433.5,432.4,431C978.8,2937.4,1171.4,2742.7,1170.6,2505.2z M5431.5,2506.4c-1.1-240.1-193.9-433.6-431.2-432.6
		c-236.5,1-432.2,197.9-431.5,434.1c0.7,237.4,195.6,431.9,433,432.1C5239.9,2940.1,5432.6,2745.7,5431.5,2506.4z M4497.1,2141.8
		c-225-73.9-440.1-83.9-651.7,11.4c-97.7,44-110.8,98.4-56.4,184.7c106.1,168.3,212,336.6,318.4,504.7
		c59.6,94.1,119.9,187.8,173,271c89.2-69,172.1-133.1,254.7-196.9C4347.4,2674.6,4334.2,2419.2,4497.1,2141.8z M1459.2,3114.9
		c165.9-261.8,335.7-529.5,505-797.5c37.7-59.6,22.2-115.7-36.4-142.9c-76.8-35.6-159.1-67.3-242.2-79.6
		c-148.1-22.1-296.5-13.9-440,52.6c161.7,274.4,145.2,532-40.2,769.1C1290.5,2983,1371.5,3046.3,1459.2,3114.9z M3302.4,2264.8
		c0-103.5,7.3-200.5-3.7-295.5c-4.3-37.1-42.3-85.5-77.3-101.5c-232.3-106.2-468.8-105.3-701.9-1.4c-32.6,14.5-73,54-75.9,85.1
		c-9.6,102.8-3.6,207.1-3.6,313.3C2727.9,2264.8,3010.2,2264.8,3302.4,2264.8z M1560,2007.5c184.8,0.6,336.2-148.2,336-330.3
		c-0.2-181.9-153-333.4-335.7-332.9c-180.8,0.5-326.7,146.3-328.5,328.5C1230,1860.5,1373.6,2006.9,1560,2007.5z M2840.5,1725.6
		c184.8,0.6,336.2-148.2,336-330.3c-0.2-181.9-153-333.4-335.7-332.9c-180.8,0.5-326.7,146.3-328.5,328.5
		C2510.4,1578.5,2654.1,1725,2840.5,1725.6z M4178.6,2007.5c186.4-0.2,330.9-146.7,329.3-333.8c-1.5-182.1-147-328.3-327.7-329.4
		c-182.8-1-336.3,150.4-336.7,332C3843,1859.5,3993.1,2007.8,4178.6,2007.5z"></path>
	<path d="M5076.1,4688.4c-1475.2,0-2936.7,0-4406.5,0c9-21,13.7-38.1,22.8-52.4c453.1-717,906.1-1434.1,1361.9-2149.4
		c17.3-27.2,62.4-52,94.7-52.2c479.8-3.3,959.7-3.3,1439.5-0.1c32.6,0.2,78.4,23.6,95.6,50.5c457.5,717.4,912,1436.8,1366.8,2155.9
		C5057.8,4651.7,5063.1,4663.6,5076.1,4688.4z"></path>
	<path d="M5202.8,4573c-122.7-193.8-244.9-386.5-366.9-579.3c-119.3-188.6-238.9-377-357.5-566.1c-67.6-107.8-38.4-242.4,76.5-293.8
		c297.5-133.1,599.8-135.5,895.7,4.3c44.8,21.2,94.9,85.1,97.9,132.1c20.4,320.3,6.2,640.4-60.8,955.2
		C5454.2,4383.2,5356.2,4498.9,5202.8,4573z"></path>
	<path d="M534.4,4572.1c-178.3-87.2-279-231.3-297-418.5c-27-280.5-35.6-562.9-52.8-844.4c-5.5-90.5,38.7-149.9,117.6-182.9
		c289.4-121.3,581.3-122.9,869.4,0c129.8,55.4,160.8,188.9,84.9,309c-225.5,356.9-451.3,713.5-677.2,1070.2
		C565.1,4528,549.6,4549.6,534.4,4572.1z"></path>
	<path d="M1170.6,2505.2c0.8,237.6-191.7,432.2-430.1,434.8c-237.1,2.5-431.8-191.5-432.4-431c-0.6-239.8,189.9-433.4,428.4-435.3
		C971.4,2071.8,1169.7,2268.9,1170.6,2505.2z"></path>
	<path d="M5431.5,2506.4c1.1,239.3-191.7,433.8-429.7,433.6c-237.5-0.2-432.3-194.6-433-432.1c-0.7-236.2,195.1-433.1,431.5-434.1
		C5237.6,2072.8,5430.5,2266.2,5431.5,2506.4z"></path>
	<path d="M4497.1,2141.8c-162.9,277.4-149.7,532.8,37.9,774.9c-82.6,63.9-165.4,127.9-254.7,196.9c-53.1-83.2-113.4-176.9-173-271
		c-106.4-168.1-212.3-336.5-318.4-504.7c-54.4-86.2-41.3-140.7,56.4-184.7C4057.1,2057.9,4272.1,2067.9,4497.1,2141.8z"></path>
	<path d="M1459.2,3114.9c-87.7-68.6-168.8-131.9-253.8-198.4c185.4-237.2,201.9-494.8,40.2-769.1c143.5-66.4,291.9-74.6,440-52.6
		c83.1,12.4,165.4,44,242.2,79.6c58.6,27.2,74,83.3,36.4,142.9C1794.9,2585.4,1625.1,2853.1,1459.2,3114.9z"></path>
	<path d="M3302.4,2264.8c-292.2,0-574.5,0-862.4,0c0-106.2-6-210.5,3.6-313.3c2.9-31.1,43.3-70.5,75.9-85.1
		c233.1-103.9,469.7-104.9,701.9,1.4c35.1,16,73,64.4,77.3,101.5C3309.7,2064.2,3302.4,2161.3,3302.4,2264.8z"></path>
	<path d="M1560,2007.5c-186.4-0.6-330-147.1-328.2-334.7c1.8-182.2,147.6-328.1,328.5-328.5c182.7-0.5,335.5,151,335.7,332.9
		C1896.2,1859.3,1744.8,2008.1,1560,2007.5z"></path>
	<path d="M4178.6,2007.5c-185.4,0.2-335.5-148.1-335.1-331.1c0.4-181.6,153.9-333.1,336.7-332c180.7,1,326.2,147.2,327.7,329.4
		C4509.4,1860.9,4364.9,2007.3,4178.6,2007.5z"></path>
</g>
</svg>